<?xml version="1.0" encoding="utf-8"?>
<!-- Generator: Adobe Illustrator 18.1.1, SVG Export Plug-In . SVG Version: 6.00 Build 0)  -->
<svg version="1.1" id="Layer_1" xmlns="http://www.w3.org/2000/svg" xmlns:xlink="http://www.w3.org/1999/xlink" x="0px" y="0px"
	 viewBox="0 0 31 31" enable-background="new 0 0 31 31" xml:space="preserve">
<path fill="#36B44A" d="M15.2,3.4c0,0-13.6-0.4-13.6,11.1c0,0-0.3,8.1,10.2,10.7c0,0,3,0.4,2.3,2.8c-0.7,2.3,3.1,0,3.1,0
	S28.9,21.8,29,14.8C29.2,2.7,15.2,3.4,15.2,3.4z M10.7,17.7h-3H7.6H6.5v-6.2h1.3v4.9h3V17.7z M12.6,17.7h-1.3v-6.2h1.3V17.7z
	 M18.9,17.7h-1.3L15.1,14v3.7h-1.3v-6.2h1.3l2.6,3.4v-3.4h1.3V17.7z M24,12.8h-2.8V14H24v1.3h-2.8v1.2H24v1.3h-2.8h-0.2h-1v-6.2h1
	h0.2H24V12.8z"/>
</svg>
