<?xml version="1.0" encoding="utf-8"?>
<!-- Generator: Adobe Illustrator 18.1.1, SVG Export Plug-In . SVG Version: 6.00 Build 0)  -->
<svg version="1.1" id="Layer_1" xmlns="http://www.w3.org/2000/svg" xmlns:xlink="http://www.w3.org/1999/xlink" x="0px" y="0px"
	 viewBox="0 0 31 31" enable-background="new 0 0 31 31" xml:space="preserve">
<g>
	<path fill="#FFFFFF" d="M20.1,8.2h-9.2c-1.5,0-2.7,1.2-2.7,2.7v9.2c0,1.5,1.2,2.7,2.7,2.7h9.2c1.5,0,2.7-1.2,2.7-2.7v-9.2
		C22.8,9.4,21.6,8.2,20.1,8.2z M15.5,20.3c-2.6,0-4.8-2.2-4.8-4.8c0-2.6,2.2-4.8,4.8-4.8c2.6,0,4.8,2.2,4.8,4.8
		C20.3,18.2,18.1,20.3,15.5,20.3z M20.5,11.7c-0.6,0-1.1-0.5-1.1-1.1c0-0.6,0.5-1.1,1.1-1.1c0.6,0,1.1,0.5,1.1,1.1
		S21.1,11.7,20.5,11.7z"/>
	<path fill="#FFFFFF" d="M15.5,12.8c-1.5,0-2.8,1.2-2.8,2.8c0,1.5,1.2,2.8,2.8,2.8c1.5,0,2.8-1.2,2.8-2.8C18.3,14,17,12.8,15.5,12.8
		z"/>
	<path fill="#FFFFFF" d="M15.5,0C6.9,0,0,6.9,0,15.5S6.9,31,15.5,31S31,24.1,31,15.5S24.1,0,15.5,0z M24.8,20.2
		c0,2.6-2.1,4.7-4.7,4.7h-9.2c-2.6,0-4.7-2.1-4.7-4.7v-9.2c0-2.6,2.1-4.7,4.7-4.7h9.2c2.6,0,4.7,2.1,4.7,4.7V20.2z"/>
</g>
</svg>
