<?xml version="1.0" encoding="utf-8"?>
<!-- Generator: Adobe Illustrator 18.1.1, SVG Export Plug-In . SVG Version: 6.00 Build 0)  -->
<svg version="1.1" id="Layer_1" xmlns="http://www.w3.org/2000/svg" xmlns:xlink="http://www.w3.org/1999/xlink" x="0px" y="0px"
	 viewBox="0 0 612 792" enable-background="new 0 0 612 792" xml:space="preserve">
<g>
	<path fill="#FF6600" d="M568.3,194.4h-74.2c-17.7,0-32.1,10.9-35.9,27l-77.1,282.4H148.3l-47.5-144.2h249.6
		c20.7,0,37.4-16.8,37.4-37.4s-16.8-37.4-37.4-37.4H49.8c-12.1,0-23,5.5-30,15.1c-7.2,9.8-9.2,22.4-5.7,33.6l0,0l0,0l72,219.3
		l0.1,0.2l0.1,0.2c5.4,14.6,19.6,24.4,35.5,24.4h286.8c15.5,0,30.4-9.7,36.3-23.7l0.3-0.9l0.2-0.9l77.2-282.7h46
		c20.7,0,37.4-16.8,37.4-37.4C605.9,211.3,589,194.4,568.3,194.4z"/>
	<path fill="#FF6600" d="M362,604.1c-50.7,0-92,41.2-92,92c0,50.7,41.2,92,92,92c25,0,48.3-9.6,65.5-26.9
		c17.1-17.2,26.5-40.3,26.5-64.9C454,645.4,412.7,604.1,362,604.1z M391.5,694.8c0,16.2-13.2,29.3-29.3,29.3
		c-15.4,0-29.3-14-29.3-29.3c0-16.2,13.2-29.3,29.3-29.3C378.3,665.5,391.5,678.6,391.5,694.8z"/>
	<path fill="#FF6600" d="M156.2,604.1c-50.7,0-92,41.2-92,92c0,50.7,41.2,92,92,92s92-41.2,92-92
		C248.1,645.4,206.8,604.1,156.2,604.1z M184.7,694.8c0,15.7-12.8,28.5-28.5,28.5c-14.9,0-28.5-13.6-28.5-28.5
		c0-15.7,12.8-28.5,28.5-28.5C171.1,666.3,184.7,679.9,184.7,694.8z"/>
</g>
<g>
	<path fill="#FF6600" d="M253.3,209.7L253.3,209.7c-14.4,0-26.3-11.2-27.3-25.5L218.2,65c-1-15.8,11.5-29.1,27.3-29.1h15.1
		c15.7,0,28.2,13.3,27.3,29L280.6,184C279.7,198.5,267.8,209.7,253.3,209.7z"/>
	<path fill="#FF6600" d="M180.4,218.4L180.4,218.4c-11.2,9-27.5,7.7-37.2-2.9l-80.6-88.1c-10.7-11.7-9.3-29.9,3.1-39.8l11.8-9.4
		c12.3-9.8,30.3-7.3,39.4,5.6l68.9,97.6C194,193.1,191.7,209.4,180.4,218.4z"/>
	<path fill="#FF6600" d="M325.5,218.4L325.5,218.4c11.2,9,27.5,7.7,37.2-2.9l80.6-88.1c10.7-11.7,9.3-29.9-3.1-39.8l-11.8-9.4
		c-12.3-9.8-30.3-7.3-39.4,5.6l-68.9,97.6C311.9,193.1,314.2,209.4,325.5,218.4z"/>
</g>
</svg>
